<?xml version="1.0" encoding="utf-8"?>
<!-- Generator: Adobe Illustrator 27.7.0, SVG Export Plug-In . SVG Version: 6.00 Build 0)  -->
<svg version="1.1" id="Layer_1" xmlns="http://www.w3.org/2000/svg" xmlns:xlink="http://www.w3.org/1999/xlink" x="0px" y="0px"
	 viewBox="0 0 965.1 792.3" style="enable-background:new 0 0 965.1 792.3;" xml:space="preserve">
<style type="text/css">
	.st0{fill:#262262;}
	.st1{fill:#FFFFFF;}
</style>
<polygon class="st0" points="475.2,15.6 14.7,181.3 14.7,280.5 14.7,471.3 14.7,475.7 14.7,488.1 14.7,492.5 14.7,625.6 14.7,630 
	14.7,777.6 245.3,777.6 249.7,777.6 426.7,777.6 431.2,777.6 523.2,777.6 527.6,777.6 713.4,777.6 717.8,777.6 919,777.6 
	923.3,777.6 950.3,777.6 950.3,629.9 950.3,625.6 950.3,492.5 950.3,488.1 950.3,475.7 950.3,471.3 950.3,280.5 950.3,182.7 "/>
<path class="st1" d="M962.4,171.3L477.6,0.9l-1.1-0.4L475.1,0l-1.3,0.5L2.7,170L0,171v2.8v614.5v4h4h957.1h4v-4V175.1v-2.8
	L962.4,171.3z M950.3,471.3h-27V201.5L475.9,48.5l-0.7-0.2L45.2,201l-1.5,0.5v269.8h-29v-290L475.2,15.6l475.1,167.1L950.3,471.3
	L950.3,471.3z M949,625.6v4.3h1.3v147.7h-27v-7.3H919v7.3H717.8V690h22.8v-60H919v1.9h0.1v4.5h4.3v-4.5h0.1V492.5h27v133.1H949z
	 M523.2,777.6h-92V625.3c0-25.9,20.6-47,46-47c25.4,0,46,21.1,46,47L523.2,777.6L523.2,777.6z M436.5,581.4
	c11.1-10.3,25.6-15.9,40.6-15.9c14.7,0,29.5,5.9,40.7,16.1c10.8,10,17.4,23.3,18.1,36.7h-8.9c-3.4-25.4-24.7-44.4-49.9-44.4
	c-25.2,0-46.5,19-50,44.4h-8.5C419.4,604.5,425.7,591.4,436.5,581.4z M527.5,623.2H541v-2.5c0-32-29.8-60.2-63.8-60.2
	c-34.4,0-63.4,27.5-63.4,60.2v2.5h13c0,0.8,0,1.5,0,2.1v152.2H249.7V690h22.8v-72.1c0-12.5-9.9-22.9-22.8-24V471.3H48.1V204.7
	l124.2-44.2v0.5h5.8v-2.5l275.4-97.9v96.8h-3v3.6l6.6,0V59.3l18-6.4l18.5,6.3V161l6.6,0v-3.6h-3v-97l287,98.2v2.4h5.8v-0.4
	L919,204.7v266.6H713.4v122.6c-12.8,1.1-22.8,11.4-22.8,24V690h22.8v87.6H527.6V625.3C527.6,624.6,527.6,624,527.5,623.2z M14.7,630
	h1.1v-4.4h-1.1V492.5h29v133.1h-2.8v4.4h2.8v3.6h4.4V630h174.4v60h22.8v87.6H14.7V630z M736.2,630v55.6h-18.4V630H736.2z
	 M736.2,617.9v7.7h-18.4v-27.2C728.2,599.4,736.2,607.8,736.2,617.9z M717.8,593.9V492.5H919v133.1H740.6v-7.7
	C740.6,605.3,730.7,595,717.8,593.9z M717.8,488.1v-12.4H919v12.4H717.8z M245.3,475.7v12.4H48.1v-12.4H245.3z M245.3,630v55.6
	h-18.4V630H245.3z M48.1,625.5V492.5h197.1v101.4c-12.8,1.1-22.8,11.4-22.8,24v7.7L48.1,625.5L48.1,625.5z M226.9,617.9
	c0-10.1,8-18.5,18.4-19.5v27.2h-18.4V617.9z M268,630v55.6h-18.4V630H268z M268,617.9v7.7h-18.4v-27.2
	C260,599.4,268,607.8,268,617.9z M713.4,630v55.6h-18.4V630H713.4z M695.1,617.9c0-10.1,8-18.5,18.4-19.5v27.2h-18.4V617.9z
	 M43.7,475.7v12.4h-29v-12.4H43.7z M923.4,488.1v-12.4h27v12.4H923.4z"/>
<path class="st1" d="M284,392.5c-4.4,0-7.8-1.9-10.1-5.6l-39-60.6c13.6-1,24.2-5.3,32-12.7c7.8-7.4,11.6-16.9,11.6-28.6
	c0-7.8-1.8-14.8-5.4-21c-3.1-5.5-7.3-9.8-12.4-12.9c-4.9-3.1-10.8-5.2-17.5-6.5c-6.7-1.2-15.8-1.9-27.4-1.9h-84.2v3.6
	c2.8,0.7,4.8,1.7,5.7,3c1,1.3,1.5,3.5,1.5,6.7v126.9c0,3.1-0.5,5.4-1.5,6.6c-1,1.3-2.9,2.3-5.7,3v3.6h32v-3.6
	c-2.9-0.7-4.8-1.8-5.7-3.1c-1-1.3-1.5-3.5-1.5-6.6v-55.8h58.7l34.9,55c2.6,4.1,3.9,6.5,3.9,7.3c0,1.5-1.8,2.5-5.5,3.1v3.6h35.5
	L284,392.5L284,392.5z M156.5,312.5v-55.2h60.6c9.1,0,15.8,0.3,20.1,1c4.3,0.7,8.2,2,11.8,3.9c7.9,4.5,11.9,12.1,11.9,22.7
	c0,10.6-3.9,18.1-11.6,22.6c-3.3,1.9-7.1,3.2-11.4,3.9s-10.7,1.1-19.2,1.1L156.5,312.5L156.5,312.5z"/>
<path class="st1" d="M448.9,392.5v3.6h36.4v-3.6c-4.3-1-7-2.3-8.3-3.8c-1.3-1.5-3.9-6.6-7.9-15.2l-53.8-116.9c-1.4-2.9-2-4.8-2-5.6
	c0-1.9,1.8-3.5,5.5-4.7v-3.6h-37.3v3.6c3.7,1,5.5,2.4,5.5,4.4c0,1.1-0.7,3-2,6l-56.2,121.3c-2.6,5.8-4.7,9.5-6.4,11.2
	c-1.6,1.7-4,2.9-7,3.4v3.6h34.2v-3.6c-4.4-0.7-6.7-2.2-6.7-4.5c0-1.1,0.6-3.1,1.9-5.9l13.5-29.1h82.1l12.6,27.5
	c1.6,3.5,2.5,5.8,2.5,7C455.5,390.3,453.3,391.9,448.9,392.5z M364.9,338.5l34.5-75.8l34.5,75.8H364.9z"/>
<path class="st1" d="M559.6,386.2c0,3.3-2.1,5.4-6.4,6.3v3.6h42.7v-3.6c-4.3-0.9-6.4-2.9-6.4-6.1c0-2,0.9-5.1,2.8-9.5l49.5-111.5
	c3.6-8.2,6-13.2,7.4-14.9c1.3-1.7,3.7-3.1,7.2-4.2v-3.6h-34.8v3.6c4.3,1.1,6.5,3,6.5,5.8c0,2.2-1,5.7-3.2,10.3l-49.7,113.6
	L526,262.5c-2-4.3-2.9-7.8-2.9-10.3c0-2.9,2.2-4.8,6.6-5.8v-3.6H493v3.6c3.4,1,5.7,2.3,7.1,3.9c1.4,1.6,3.4,5.6,6.2,11.8l50.4,114.9
	C558.6,381.3,559.6,384.4,559.6,386.2z"/>
<path class="st1" d="M697,246.3c2.8,0.8,4.8,1.8,5.7,3c1,1.3,1.5,3.5,1.5,6.6v126.9c0,3.1-0.5,5.4-1.4,6.6c-0.9,1.3-2.9,2.3-5.8,3
	v3.6h123.1c3.2,0,5.4,0.5,6.7,1.5c1.3,1,2.3,2.9,3.1,5.7h3.6v-29h-3.6c-0.7,2.8-1.7,4.8-3,5.7c-1.3,1-3.5,1.5-6.7,1.5h-98.3v-57
	h63.5c3.1,0,5.4,0.5,6.7,1.5c1.3,1,2.3,2.9,3,5.7h3.6v-29H795c-0.7,2.9-1.7,4.8-3,5.7c-1.3,1-3.5,1.5-6.7,1.5h-63.5v-52.6h96.9
	c3.2,0,5.4,0.5,6.7,1.5c1.3,1,2.3,2.9,3,5.7h3.6v-29h-3.6c-0.8,2.9-1.8,4.8-3,5.8c-1.3,1-3.5,1.4-6.6,1.4H697V246.3z"/>
<path class="st1" d="M302.6,514.5c0,0-0.1-0.3-0.1-1v-14.6h26v14.6c0,0.8-0.1,1-0.1,1c0,0-0.2,0.2-0.9,0.4l-1,0.3v3.3h11.3v-3.3
	l-1-0.3c-0.7-0.2-0.8-0.4-0.9-0.4c0,0-0.1-0.2-0.1-1v-34.6c0-0.8,0.1-1,0.1-1s0.2-0.2,0.9-0.4l1-0.2V474h-11.3v3.3l1,0.2
	c0.6,0.2,0.8,0.3,0.8,0.3c0,0,0.1,0.2,0.1,1v13.4h-26v-13.4c0-0.8,0.1-1,0.1-1c0,0,0.2-0.2,0.9-0.4l1-0.2V474h-11.3v3.3l1,0.2
	c0.7,0.2,0.8,0.3,0.8,0.3s0.1,0.2,0.1,1v34.5c0,0.8-0.1,1-0.1,1c0,0-0.2,0.2-0.9,0.3l-1,0.2v3.3h11.3v-3.3l-1-0.2
	C302.8,514.7,302.6,514.5,302.6,514.5z"/>
<path class="st1" d="M419.6,479.4c-4.7-4-11-6.1-18.7-6.1h0c-4.4,0.1-8.3,0.7-11.6,2c-4.7,1.8-8.4,4.8-11,8.8
	c-2.4,3.7-3.6,7.8-3.6,12.2c0,3,0.6,5.8,1.7,8.5c1.4,3.3,3.4,6.1,6,8.4c4.7,4,11,6.1,18.6,6.1c4.3,0,8.3-0.7,11.7-2
	c4.7-1.8,8.4-4.7,11-8.8c2.4-3.7,3.6-7.7,3.6-11.9c0-3.1-0.6-6-1.7-8.7C424.3,484.4,422.3,481.6,419.6,479.4z M419.7,496.4
	c0,4.4-1.5,8-4.6,11c-3.4,3.2-8.1,4.9-14.1,4.9c-5.9,0-10.7-1.6-14-4.9c-3.1-3-4.6-6.7-4.6-11.2c0-4.5,1.5-8.2,4.6-11.2
	c3.4-3.2,8.1-4.9,14-4.9c3.1,0,5.8,0.4,8.2,1.3c2.1,0.7,4.1,1.9,5.9,3.6C418.2,487.9,419.7,491.6,419.7,496.4z"/>
<path class="st1" d="M501.7,477.2l0.9,0.3c0.3,0.1,0.5,0.2,0.6,0.3c-0.1,0.2-0.2,0.6-0.6,1.3l-12.8,25.5L477,479.3
	c-0.4-0.8-0.6-1.3-0.8-1.6c0.1-0.1,0.3-0.1,0.5-0.2l0.9-0.3V474h-13.4v3.3l1,0.2c0.6,0.2,0.8,0.3,0.8,0.3s0.1,0.2,0.1,1v34.6
	c0,0.8-0.1,1-0.1,1c0,0-0.2,0.2-0.9,0.3l-1,0.3v3.3h10.9v-3.3l-1-0.3c-0.7-0.2-0.8-0.3-0.8-0.3c0,0-0.1-0.2-0.1-1v-26l16.3,32.5
	l16.4-32.5v26c0,0.8-0.1,1-0.1,1c0,0-0.2,0.2-0.9,0.3l-1,0.2v3.3h11.3v-3.3l-1-0.3c-0.7-0.2-0.8-0.3-0.8-0.3c0,0-0.1-0.2-0.1-1
	v-34.5c0-0.8,0.1-1,0.1-1c0,0,0.2-0.2,0.9-0.4l1-0.3V474h-13.5L501.7,477.2L501.7,477.2z"/>
<path class="st1" d="M589.3,510.8c-0.2,0.6-0.3,0.8-0.3,0.8c0,0-0.3,0.1-1.1,0.1h-25.5v-12.9h16c0.8,0,1,0.1,1,0.1
	c0,0,0.2,0.2,0.3,0.8l0.2,1h3.3v-10.5h-3.3l-0.2,1c-0.2,0.6-0.3,0.8-0.3,0.8c0,0-0.2,0.1-1,0.1h-16v-11.7h25.1c0.8,0,1,0.1,1,0.1
	c0,0,0.2,0.2,0.3,0.8l0.2,1h3.3V472h-3.3l-0.2,1c-0.1,0.6-0.3,0.8-0.3,0.8c0,0-0.2,0.1-1,0.1h-34.5v3.3l1,0.2
	c0.7,0.2,0.8,0.4,0.8,0.4c0,0,0.1,0.2,0.1,1v34.5c0,0.8-0.1,1-0.1,1c0,0-0.2,0.2-0.8,0.3l-1,0.2v3.3h34.8c0.8,0,1,0.1,1,0.1
	c0,0,0.2,0.2,0.4,0.9l0.3,1h3.3v-10.5h-3.3L589.3,510.8z"/>
<path class="st1" d="M640.7,474.6c-3,0.9-5.5,2.3-7.3,4c-2.5,2.4-3.7,5.2-3.7,8.6c0,2,0.5,3.8,1.5,5.5c1,1.7,2.3,3,3.9,3.9
	c1.7,0.9,3.6,1.6,5.7,2c2.1,0.4,4.9,0.7,8.5,0.8c4.7,0.2,7.8,0.3,8.9,0.4c0.9,0.1,1.8,0.3,2.7,0.6c3.3,1.1,3.7,3.1,3.7,4.4
	c0,1.7-0.7,3.1-2.2,4.4c-2.4,2-6.1,3.1-10.9,3.1c-2.5,0-4.7-0.3-6.8-0.8c-2.1-0.5-4.2-1.3-6.5-2.5c-2.2-1.1-2.9-1.8-3.2-2
	c0.1-0.2,0.2-0.5,0.4-0.9l0.5-1.1l-3-1.7l-5.9,9.9l2.9,1.8l0.7-0.8c0.2-0.3,0.4-0.5,0.6-0.6c0.2,0.1,0.5,0.2,1.1,0.5
	c3.7,2,7,3.3,9.7,4s6,1.1,9.6,1.1c6.4,0,11.5-1.5,15.2-4.3c3.5-2.7,5.2-6.1,5.2-10.3c0-4.5-2-7.8-5.9-10c-1.4-0.8-3.3-1.4-5.4-1.7
	c-2.1-0.3-5.5-0.5-10.2-0.7c-3.2-0.1-5.7-0.2-7.2-0.4c-1.4-0.2-2.6-0.5-3.5-1c-0.8-0.4-1.4-0.9-1.9-1.6c-0.5-0.7-0.7-1.4-0.7-2.1
	c0-1,0.3-1.8,0.9-2.7c0.7-0.9,1.6-1.7,2.7-2.3c2.6-1.3,5.7-2,9.3-2c4.4,0,8.6,0.9,12.5,2.8c1,0.5,1.3,0.8,1.5,0.9
	c0,0.2-0.2,0.5-0.4,1.1l-0.4,1.1l3,1.6l5.7-10.2l-3-1.5l-0.7,0.9c-0.3,0.3-0.5,0.5-0.6,0.6c-0.1,0-0.3-0.1-0.6-0.2
	c-3.1-1.4-5.9-2.4-8.4-2.9c-2.4-0.6-5.2-0.9-8.1-0.9C647,473.2,643.7,473.7,640.7,474.6z"/>
<rect x="19.2" y="625.6" class="st1" width="7.4" height="4.4"/>
<rect x="30.1" y="625.6" class="st1" width="7.4" height="4.4"/>
<rect x="940" y="625.6" class="st1" width="6.5" height="4.3"/>
<rect x="931" y="625.6" class="st1" width="6.5" height="4.3"/>
<rect x="923.7" y="625.6" class="st1" width="4.8" height="4.3"/>
<rect x="350.8" y="625.6" class="st1" width="5.8" height="4.4"/>
<rect x="306.6" y="625.6" class="st1" width="9.4" height="4.4"/>
<rect x="336" y="625.6" class="st1" width="9.4" height="4.4"/>
<rect x="321.3" y="625.6" class="st1" width="9.4" height="4.4"/>
<rect x="277.1" y="625.6" class="st1" width="9.4" height="4.4"/>
<rect x="291.8" y="625.6" class="st1" width="9.4" height="4.4"/>
<rect x="662.5" y="625.6" class="st1" width="9.5" height="4.4"/>
<rect x="677.6" y="625.6" class="st1" width="9.5" height="4.4"/>
<rect x="632.5" y="625.6" class="st1" width="9.5" height="4.4"/>
<rect x="617.4" y="625.6" class="st1" width="9.5" height="4.4"/>
<rect x="647.5" y="625.6" class="st1" width="9.5" height="4.4"/>
<rect x="606.2" y="625.6" class="st1" width="5.8" height="4.4"/>
<rect x="43.7" y="655" class="st1" width="4.4" height="9.8"/>
<rect x="43.7" y="686.3" class="st1" width="4.4" height="9.8"/>
<rect x="43.7" y="670.7" class="st1" width="4.4" height="9.8"/>
<rect x="43.7" y="639.4" class="st1" width="4.4" height="9.8"/>
<rect x="43.7" y="764.5" class="st1" width="4.4" height="9.8"/>
<rect x="43.7" y="717.6" class="st1" width="4.4" height="9.8"/>
<rect x="43.7" y="748.9" class="st1" width="4.4" height="9.8"/>
<rect x="43.7" y="733.2" class="st1" width="4.4" height="9.8"/>
<rect x="43.7" y="702" class="st1" width="4.4" height="9.8"/>
<rect x="919" y="748.5" class="st1" width="4.3" height="7.4"/>
<rect x="919" y="759.4" class="st1" width="4.3" height="7.4"/>
<rect x="919" y="716" class="st1" width="4.3" height="7.4"/>
<rect x="919" y="737.7" class="st1" width="4.3" height="7.4"/>
<rect x="919" y="672.5" class="st1" width="4.3" height="7.4"/>
<rect x="919" y="683.4" class="st1" width="4.3" height="7.4"/>
<rect x="919" y="639.9" class="st1" width="4.3" height="7.4"/>
<rect x="919" y="661.6" class="st1" width="4.3" height="7.4"/>
<rect x="919" y="694.2" class="st1" width="4.3" height="7.4"/>
<rect x="919" y="726.8" class="st1" width="4.3" height="7.4"/>
<rect x="919" y="705.1" class="st1" width="4.3" height="7.4"/>
<rect x="919" y="650.8" class="st1" width="4.3" height="7.4"/>
<rect x="768.9" y="157.4" class="st1" width="9.7" height="3.6"/>
<rect x="753.5" y="157.4" class="st1" width="9.7" height="3.6"/>
<rect x="506" y="157.4" class="st1" width="9.7" height="3.6"/>
<rect x="521.5" y="157.4" class="st1" width="9.7" height="3.6"/>
<rect x="552.4" y="157.4" class="st1" width="9.7" height="3.6"/>
<rect x="537" y="157.4" class="st1" width="9.7" height="3.6"/>
<rect x="645.2" y="157.4" class="st1" width="9.7" height="3.6"/>
<rect x="722.5" y="157.4" class="st1" width="9.7" height="3.6"/>
<rect x="676.1" y="157.4" class="st1" width="9.7" height="3.6"/>
<rect x="738" y="157.4" class="st1" width="9.7" height="3.6"/>
<rect x="660.7" y="157.4" class="st1" width="9.7" height="3.6"/>
<rect x="691.6" y="157.4" class="st1" width="9.7" height="3.6"/>
<rect x="707.1" y="157.4" class="st1" width="9.7" height="3.6"/>
<rect x="629.7" y="157.4" class="st1" width="9.7" height="3.6"/>
<rect x="567.9" y="157.4" class="st1" width="9.7" height="3.6"/>
<rect x="614.3" y="157.4" class="st1" width="9.7" height="3.6"/>
<rect x="583.3" y="157.4" class="st1" width="9.7" height="3.6"/>
<rect x="598.8" y="157.4" class="st1" width="9.7" height="3.6"/>
<rect x="228.1" y="157.4" class="st1" width="9.4" height="3.6"/>
<rect x="302.2" y="157.4" class="st1" width="9.4" height="3.6"/>
<rect x="287.4" y="157.4" class="st1" width="9.4" height="3.6"/>
<rect x="272.6" y="157.4" class="st1" width="9.4" height="3.6"/>
<rect x="183.6" y="157.4" class="st1" width="9.4" height="3.6"/>
<rect x="213.2" y="157.4" class="st1" width="9.4" height="3.6"/>
<rect x="198.4" y="157.4" class="st1" width="9.4" height="3.6"/>
<rect x="420.9" y="157.4" class="st1" width="9.4" height="3.6"/>
<rect x="331.9" y="157.4" class="st1" width="9.4" height="3.6"/>
<rect x="317.1" y="157.4" class="st1" width="9.4" height="3.6"/>
<rect x="346.8" y="157.4" class="st1" width="9.4" height="3.6"/>
<rect x="361.6" y="157.4" class="st1" width="9.4" height="3.6"/>
<rect x="391.3" y="157.4" class="st1" width="9.4" height="3.6"/>
<rect x="376.4" y="157.4" class="st1" width="9.4" height="3.6"/>
<rect x="242.9" y="157.4" class="st1" width="9.4" height="3.6"/>
<rect x="435.8" y="157.4" class="st1" width="9.4" height="3.6"/>
<rect x="257.7" y="157.4" class="st1" width="9.4" height="3.6"/>
<rect x="406.1" y="157.4" class="st1" width="9.4" height="3.6"/>
</svg>
